<mxfile host="app.diagrams.net" modified="2024-03-26T12:47:30.333Z" agent="Mozilla/5.0 (Windows NT 10.0; Win64; x64; rv:124.0) Gecko/20100101 Firefox/124.0" etag="ANXNSnYhObo5z4pMwFPu" version="24.0.7" type="device" pages="2">
  <diagram name="Page-1" id="w9SBduQxJ36Z6X7YD0J-">
    <mxGraphModel dx="1195" dy="637" grid="1" gridSize="10" guides="1" tooltips="1" connect="1" arrows="1" fold="1" page="1" pageScale="1" pageWidth="827" pageHeight="1169" math="0" shadow="0">
      <root>
        <mxCell id="0" />
        <mxCell id="1" parent="0" />
        <mxCell id="aY6LOIvxn6BySmoA8edU-1" value="" style="rounded=0;whiteSpace=wrap;html=1;fillColor=none;" vertex="1" parent="1">
          <mxGeometry x="60" y="100" width="120" height="330" as="geometry" />
        </mxCell>
        <mxCell id="aY6LOIvxn6BySmoA8edU-2" value="Data" style="text;html=1;align=center;verticalAlign=middle;resizable=0;points=[];autosize=1;strokeColor=none;fillColor=none;" vertex="1" parent="1">
          <mxGeometry x="95" y="70" width="50" height="30" as="geometry" />
        </mxCell>
        <mxCell id="aY6LOIvxn6BySmoA8edU-4" style="edgeStyle=orthogonalEdgeStyle;rounded=0;orthogonalLoop=1;jettySize=auto;html=1;exitX=0.5;exitY=1;exitDx=0;exitDy=0;" edge="1" parent="1">
          <mxGeometry relative="1" as="geometry">
            <mxPoint x="280" y="40" as="sourcePoint" />
            <mxPoint x="280" y="40" as="targetPoint" />
          </mxGeometry>
        </mxCell>
        <mxCell id="aY6LOIvxn6BySmoA8edU-19" style="edgeStyle=orthogonalEdgeStyle;rounded=0;orthogonalLoop=1;jettySize=auto;html=1;entryX=0;entryY=0.5;entryDx=0;entryDy=0;" edge="1" parent="1" source="aY6LOIvxn6BySmoA8edU-6" target="aY6LOIvxn6BySmoA8edU-12">
          <mxGeometry relative="1" as="geometry">
            <Array as="points">
              <mxPoint x="210" y="200" />
              <mxPoint x="210" y="180" />
            </Array>
          </mxGeometry>
        </mxCell>
        <mxCell id="aY6LOIvxn6BySmoA8edU-6" value="" style="rounded=0;whiteSpace=wrap;html=1;fillColor=none;strokeColor=#FF0000;strokeWidth=4;" vertex="1" parent="1">
          <mxGeometry x="50" y="170" width="140" height="60" as="geometry" />
        </mxCell>
        <mxCell id="aY6LOIvxn6BySmoA8edU-20" style="edgeStyle=orthogonalEdgeStyle;rounded=0;orthogonalLoop=1;jettySize=auto;html=1;" edge="1" parent="1" source="aY6LOIvxn6BySmoA8edU-7">
          <mxGeometry relative="1" as="geometry">
            <mxPoint x="240" y="180" as="targetPoint" />
            <Array as="points">
              <mxPoint x="210" y="275" />
              <mxPoint x="210" y="180" />
            </Array>
          </mxGeometry>
        </mxCell>
        <mxCell id="aY6LOIvxn6BySmoA8edU-7" value="" style="rounded=0;whiteSpace=wrap;html=1;fillColor=none;strokeColor=#FF0000;strokeWidth=4;" vertex="1" parent="1">
          <mxGeometry x="50" y="260" width="140" height="30" as="geometry" />
        </mxCell>
        <mxCell id="aY6LOIvxn6BySmoA8edU-21" style="edgeStyle=orthogonalEdgeStyle;rounded=0;orthogonalLoop=1;jettySize=auto;html=1;entryX=0;entryY=0.5;entryDx=0;entryDy=0;" edge="1" parent="1" source="aY6LOIvxn6BySmoA8edU-8" target="aY6LOIvxn6BySmoA8edU-12">
          <mxGeometry relative="1" as="geometry">
            <Array as="points">
              <mxPoint x="210" y="385" />
              <mxPoint x="210" y="180" />
            </Array>
          </mxGeometry>
        </mxCell>
        <mxCell id="aY6LOIvxn6BySmoA8edU-8" value="" style="rounded=0;whiteSpace=wrap;html=1;fillColor=none;strokeColor=#FF0000;strokeWidth=4;" vertex="1" parent="1">
          <mxGeometry x="50" y="350" width="140" height="70" as="geometry" />
        </mxCell>
        <mxCell id="aY6LOIvxn6BySmoA8edU-12" value="" style="rounded=0;whiteSpace=wrap;html=1;fillColor=none;strokeColor=#030000;strokeWidth=1;" vertex="1" parent="1">
          <mxGeometry x="240" y="100" width="140" height="160" as="geometry" />
        </mxCell>
        <mxCell id="aY6LOIvxn6BySmoA8edU-18" value="Candidates" style="text;html=1;align=center;verticalAlign=middle;resizable=0;points=[];autosize=1;strokeColor=none;fillColor=none;" vertex="1" parent="1">
          <mxGeometry x="265" y="70" width="90" height="30" as="geometry" />
        </mxCell>
        <mxCell id="aY6LOIvxn6BySmoA8edU-23" value="&lt;font color=&quot;#9e9e9e&quot;&gt;Query&lt;/font&gt;" style="text;html=1;align=center;verticalAlign=middle;resizable=0;points=[];autosize=1;strokeColor=none;fillColor=none;" vertex="1" parent="1">
          <mxGeometry x="180" y="68" width="60" height="30" as="geometry" />
        </mxCell>
        <mxCell id="aY6LOIvxn6BySmoA8edU-24" value="&lt;font color=&quot;#878787&quot;&gt;Rerank&lt;/font&gt;" style="text;html=1;align=center;verticalAlign=middle;resizable=0;points=[];autosize=1;strokeColor=none;fillColor=none;" vertex="1" parent="1">
          <mxGeometry x="384" y="68" width="60" height="30" as="geometry" />
        </mxCell>
        <mxCell id="aY6LOIvxn6BySmoA8edU-25" value="Top 20" style="text;html=1;align=center;verticalAlign=middle;resizable=0;points=[];autosize=1;strokeColor=none;fillColor=none;" vertex="1" parent="1">
          <mxGeometry x="480" y="70" width="60" height="30" as="geometry" />
        </mxCell>
        <mxCell id="aY6LOIvxn6BySmoA8edU-26" value="" style="rounded=0;whiteSpace=wrap;html=1;fillColor=none;strokeColor=#030000;strokeWidth=1;" vertex="1" parent="1">
          <mxGeometry x="440" y="100" width="140" height="40" as="geometry" />
        </mxCell>
      </root>
    </mxGraphModel>
  </diagram>
  <diagram id="k9fF5vbZgYLiO9R0NsJZ" name="Page-2">
    <mxGraphModel dx="989" dy="527" grid="1" gridSize="10" guides="1" tooltips="1" connect="1" arrows="1" fold="1" page="1" pageScale="1" pageWidth="827" pageHeight="1169" math="0" shadow="0">
      <root>
        <mxCell id="0" />
        <mxCell id="1" parent="0" />
        <mxCell id="v6CqkgZ1li6ugyhQW8Kn-1" value="" style="rounded=0;whiteSpace=wrap;html=1;fillColor=none;" vertex="1" parent="1">
          <mxGeometry x="60" y="100" width="120" height="330" as="geometry" />
        </mxCell>
        <mxCell id="v6CqkgZ1li6ugyhQW8Kn-2" value="Data" style="text;html=1;align=center;verticalAlign=middle;resizable=0;points=[];autosize=1;strokeColor=none;fillColor=none;" vertex="1" parent="1">
          <mxGeometry x="95" y="70" width="50" height="30" as="geometry" />
        </mxCell>
        <mxCell id="v6CqkgZ1li6ugyhQW8Kn-3" style="edgeStyle=orthogonalEdgeStyle;rounded=0;orthogonalLoop=1;jettySize=auto;html=1;entryX=0;entryY=0.5;entryDx=0;entryDy=0;" edge="1" parent="1" source="v6CqkgZ1li6ugyhQW8Kn-4" target="v6CqkgZ1li6ugyhQW8Kn-9">
          <mxGeometry relative="1" as="geometry">
            <Array as="points">
              <mxPoint x="210" y="200" />
              <mxPoint x="210" y="120" />
            </Array>
          </mxGeometry>
        </mxCell>
        <mxCell id="v6CqkgZ1li6ugyhQW8Kn-4" value="" style="rounded=0;whiteSpace=wrap;html=1;fillColor=none;strokeColor=#FF0000;strokeWidth=4;" vertex="1" parent="1">
          <mxGeometry x="50" y="170" width="140" height="60" as="geometry" />
        </mxCell>
        <mxCell id="v6CqkgZ1li6ugyhQW8Kn-17" style="edgeStyle=orthogonalEdgeStyle;rounded=0;orthogonalLoop=1;jettySize=auto;html=1;entryX=0;entryY=0.5;entryDx=0;entryDy=0;" edge="1" parent="1" source="v6CqkgZ1li6ugyhQW8Kn-6" target="v6CqkgZ1li6ugyhQW8Kn-9">
          <mxGeometry relative="1" as="geometry">
            <Array as="points">
              <mxPoint x="210" y="275" />
              <mxPoint x="210" y="120" />
            </Array>
          </mxGeometry>
        </mxCell>
        <mxCell id="v6CqkgZ1li6ugyhQW8Kn-6" value="" style="rounded=0;whiteSpace=wrap;html=1;fillColor=none;strokeColor=#FF0000;strokeWidth=4;" vertex="1" parent="1">
          <mxGeometry x="50" y="260" width="140" height="30" as="geometry" />
        </mxCell>
        <mxCell id="v6CqkgZ1li6ugyhQW8Kn-18" style="edgeStyle=orthogonalEdgeStyle;rounded=0;orthogonalLoop=1;jettySize=auto;html=1;entryX=0;entryY=0.5;entryDx=0;entryDy=0;" edge="1" parent="1" source="v6CqkgZ1li6ugyhQW8Kn-8" target="v6CqkgZ1li6ugyhQW8Kn-9">
          <mxGeometry relative="1" as="geometry">
            <Array as="points">
              <mxPoint x="210" y="385" />
              <mxPoint x="210" y="120" />
            </Array>
          </mxGeometry>
        </mxCell>
        <mxCell id="v6CqkgZ1li6ugyhQW8Kn-8" value="" style="rounded=0;whiteSpace=wrap;html=1;fillColor=none;strokeColor=#FF0000;strokeWidth=4;" vertex="1" parent="1">
          <mxGeometry x="50" y="350" width="140" height="70" as="geometry" />
        </mxCell>
        <mxCell id="v6CqkgZ1li6ugyhQW8Kn-9" value="" style="rounded=0;whiteSpace=wrap;html=1;fillColor=none;strokeColor=#030000;strokeWidth=1;" vertex="1" parent="1">
          <mxGeometry x="240" y="100" width="140" height="40" as="geometry" />
        </mxCell>
        <mxCell id="v6CqkgZ1li6ugyhQW8Kn-11" value="&lt;font color=&quot;#9e9e9e&quot;&gt;Query&lt;/font&gt;" style="text;html=1;align=center;verticalAlign=middle;resizable=0;points=[];autosize=1;strokeColor=none;fillColor=none;" vertex="1" parent="1">
          <mxGeometry x="180" y="68" width="60" height="30" as="geometry" />
        </mxCell>
        <mxCell id="v6CqkgZ1li6ugyhQW8Kn-13" value="Top 20" style="text;html=1;align=center;verticalAlign=middle;resizable=0;points=[];autosize=1;strokeColor=none;fillColor=none;" vertex="1" parent="1">
          <mxGeometry x="280" y="70" width="60" height="30" as="geometry" />
        </mxCell>
      </root>
    </mxGraphModel>
  </diagram>
</mxfile>
